<?xml version="1.0" encoding="UTF-8" standalone="no"?><svg xmlns="http://www.w3.org/2000/svg" xmlns:xlink="http://www.w3.org/1999/xlink" contentStyleType="text/css" height="586px" preserveAspectRatio="none" style="width:290px;height:586px;background:#FFFFFF;" version="1.1" viewBox="0 0 290 586" width="290px" zoomAndPan="magnify"><defs/><g><rect fill="none" height="26.2969" id="_title" style="stroke:none;stroke-width:1.0;" width="210" x="30" y="5"/><text fill="#000000" font-family="sans-serif" font-size="14" font-weight="bold" lengthAdjust="spacing" textLength="200" x="35" y="22.9951">Ping Client State Machine</text><!--MD5=[0f5afef98de99d3a6de16f0f78283b30]
cluster StateMachineRunner--><g id="cluster_StateMachineRunner"><path d="M19.5,177.2969 L264.5,177.2969 A12.5,12.5 0 0 1 277,189.7969 L277,203.5938 L7,203.5938 L7,189.7969 A12.5,12.5 0 0 1 19.5,177.2969 " fill="#F1F1F1" style="stroke:#F1F1F1;stroke-width:1.0;"/><rect fill="none" height="270" rx="12.5" ry="12.5" style="stroke:#181818;stroke-width:0.5;" width="270" x="7" y="177.2969"/><line style="stroke:#181818;stroke-width:0.5;" x1="7" x2="277" y1="203.5938" y2="203.5938"/><text fill="#000000" font-family="sans-serif" font-size="14" lengthAdjust="spacing" textLength="145" x="69.5" y="195.292">StateMachineRunner</text></g><text fill="#000000" font-family="sans-serif" font-size="14" lengthAdjust="spacing" textLength="31" x="92.5" y="155.9951">start</text><ellipse cx="108" cy="177.2969" fill="#F1F1F1" rx="6" ry="6" style="stroke:#181818;stroke-width:1.5;"/><text fill="#000000" font-family="sans-serif" font-size="14" lengthAdjust="spacing" textLength="63" x="144.5" y="155.9951">incoming</text><ellipse cx="176" cy="177.2969" fill="#F1F1F1" rx="6" ry="6" style="stroke:#181818;stroke-width:1.5;"/><g id="StateMachineRunner.PingState"><rect fill="#F1F1F1" height="68.8906" rx="12.5" ry="12.5" style="stroke:#181818;stroke-width:0.5;" width="237" x="23.5" y="280.2969"/><line style="stroke:#181818;stroke-width:0.5;" x1="23.5" x2="260.5" y1="306.5938" y2="306.5938"/><text fill="#000000" font-family="sans-serif" font-size="14" lengthAdjust="spacing" textLength="66" x="109" y="298.292">PingState</text><text fill="#000000" font-family="sans-serif" font-size="14" lengthAdjust="spacing" textLength="132" x="28.5" y="324.5889">ping_to_send: Ping</text><text fill="#000000" font-family="sans-serif" font-size="14" lengthAdjust="spacing" textLength="217" x="28.5" y="340.8857">received_pong: Option&lt;Pong&gt;</text></g><text fill="#000000" font-family="sans-serif" font-size="14" lengthAdjust="spacing" textLength="62" x="68" y="466.292">outgoing</text><ellipse cx="99" cy="447.2969" fill="#F1F1F1" rx="6" ry="6" style="stroke:#181818;stroke-width:1.5;"/><line style="stroke:#181818;stroke-width:1.5;" x1="103.3891" x2="95.6109" y1="451.686" y2="443.9078"/><line style="stroke:#181818;stroke-width:1.5;" x1="103.3891" x2="95.6109" y1="443.9078" y2="451.686"/><text fill="#000000" font-family="sans-serif" font-size="14" lengthAdjust="spacing" textLength="55" x="153.5" y="466.292">terminal</text><ellipse cx="181" cy="447.2969" fill="#F1F1F1" rx="6" ry="6" style="stroke:#181818;stroke-width:1.5;"/><line style="stroke:#181818;stroke-width:1.5;" x1="185.3891" x2="177.6109" y1="451.686" y2="443.9078"/><line style="stroke:#181818;stroke-width:1.5;" x1="185.3891" x2="177.6109" y1="443.9078" y2="451.686"/><ellipse cx="97" cy="69.2969" fill="#222222" rx="10" ry="10" style="stroke:none;stroke-width:1.0;"/><ellipse cx="182" cy="555.2969" fill="none" rx="10" ry="10" style="stroke:#222222;stroke-width:1.0;"/><ellipse cx="182.5" cy="555.7969" fill="#222222" rx="6" ry="6" style="stroke:none;stroke-width:1.0;"/><g id="consumer"><rect fill="#F1F1F1" height="50" rx="12.5" ry="12.5" style="stroke:#181818;stroke-width:0.5;" width="90" x="142" y="44.2969"/><line style="stroke:#181818;stroke-width:0.5;" x1="142" x2="232" y1="70.5938" y2="70.5938"/><text fill="#000000" font-family="sans-serif" font-size="14" lengthAdjust="spacing" textLength="70" x="152" y="62.292">consumer</text></g><g id="producer"><rect fill="#F1F1F1" height="50" rx="12.5" ry="12.5" style="stroke:#181818;stroke-width:0.5;" width="83" x="53.5" y="530.2969"/><line style="stroke:#181818;stroke-width:0.5;" x1="53.5" x2="136.5" y1="556.5938" y2="556.5938"/><text fill="#000000" font-family="sans-serif" font-size="14" lengthAdjust="spacing" textLength="63" x="63.5" y="548.292">producer</text></g><!--MD5=[5259e1a8904cecadac6953f9718e1bdb]
link start to PingState--><g id="link_start_PingState"><path d="M109.29,183.4469 C113.01,198.2669 124,242.0769 132.23,274.8469 " fill="none" id="start-to-PingState" style="stroke:#181818;stroke-width:1.0;"/><polygon fill="#181818" points="133.52,280.0069,135.1841,270.2996,132.2905,275.1604,127.4297,272.2668,133.52,280.0069" style="stroke:#181818;stroke-width:1.0;"/></g><!--MD5=[3a63b86e1ab23c1ff36a9e31ee824c83]
link PingState to outgoing--><g id="link_PingState_outgoing"><path d="M130.93,349.4069 C121.45,378.1469 108.42,417.7069 102.36,436.1069 " fill="none" id="PingState-to-outgoing" style="stroke:#181818;stroke-width:1.0;stroke-dasharray:1.0,3.0;"/><polygon fill="#181818" points="100.71,441.1069,107.3311,433.8157,102.2783,436.3592,99.7348,431.3064,100.71,441.1069" style="stroke:#181818;stroke-width:1.0;"/><text fill="#000000" font-family="sans-serif" font-size="13" lengthAdjust="spacing" textLength="27" x="121" y="392.3638">Ping</text><text fill="#000000" font-family="sans-serif" font-size="13" font-weight="bold" lengthAdjust="spacing" textLength="9" x="130" y="407.4966">1</text></g><!--MD5=[224684448e76a255b51a07a433ecf7bd]
link incoming to PingState--><g id="link_incoming_PingState"><path d="M174.71,183.4469 C170.99,198.2669 160,242.0769 151.77,274.8469 " fill="none" id="incoming-to-PingState" style="stroke:#181818;stroke-width:1.0;stroke-dasharray:1.0,3.0;"/><polygon fill="#181818" points="150.48,280.0069,156.5703,272.2668,151.7095,275.1604,148.8159,270.2996,150.48,280.0069" style="stroke:#181818;stroke-width:1.0;"/><text fill="#000000" font-family="sans-serif" font-size="13" lengthAdjust="spacing" textLength="32" x="167" y="226.3638">Pong</text><text fill="#000000" font-family="sans-serif" font-size="13" font-weight="bold" lengthAdjust="spacing" textLength="9" x="178.5" y="241.4966">2</text></g><!--MD5=[505494b378767c2ba00fddb1b5c6be1a]
link PingState to terminal--><g id="link_PingState_terminal"><path d="M152.04,349.4069 C160.63,378.1469 172.45,417.7069 177.96,436.1069 " fill="none" id="PingState-to-terminal" style="stroke:#181818;stroke-width:1.0;"/><polygon fill="#181818" points="179.45,441.1069,180.7086,431.3388,178.0198,436.3158,173.0428,433.627,179.45,441.1069" style="stroke:#181818;stroke-width:1.0;"/><text fill="#000000" font-family="sans-serif" font-size="13" font-weight="bold" lengthAdjust="spacing" textLength="9" x="170" y="399.8638">3</text></g><!--MD5=[dd85dc063561b54f5230c9b8c6f8ed31]
link *start to start--><g id="link_*start_start"><path d="M97.94,79.3369 C99.97,98.9169 104.77,145.1869 106.92,165.9269 " fill="none" id="*start-to-start" style="stroke:#181818;stroke-width:1.0;"/><polygon fill="#181818" points="107.46,171.0569,110.5127,161.6931,106.9455,166.0834,102.5551,162.5162,107.46,171.0569" style="stroke:#181818;stroke-width:1.0;"/></g><!--MD5=[8923de9e81a79b46e2426870fdd5ec11]
link terminal to *end--><g id="link_terminal_*end"><path d="M181.05,453.4069 C181.19,468.9569 181.64,516.0469 181.87,539.9869 " fill="none" id="terminal-to-*end" style="stroke:#181818;stroke-width:1.0;"/><polygon fill="#181818" points="181.91,545.2769,185.8327,536.2429,181.8671,540.2771,177.833,536.3115,181.91,545.2769" style="stroke:#181818;stroke-width:1.0;"/></g><!--MD5=[9fc4cd08d2652f88e665f6a8dbfacba8]
link consumer to incoming--><g id="link_consumer_incoming"><path d="M184.5,94.3469 C182.18,116.7669 178.82,149.1369 177.1,165.6869 " fill="none" id="consumer-to-incoming" style="stroke:#181818;stroke-width:1.0;stroke-dasharray:1.0,3.0;"/><polygon fill="#181818" points="176.55,171.0169,181.4549,162.4762,177.0645,166.0434,173.4973,161.6531,176.55,171.0169" style="stroke:#181818;stroke-width:1.0;"/><text fill="#000000" font-family="sans-serif" font-size="13" lengthAdjust="spacing" textLength="32" x="182" y="137.3638">Pong</text></g><!--MD5=[50ac86da0313fef5d1955c88b48ebd5e]
link outgoing to producer--><g id="link_outgoing_producer"><path d="M98.81,453.4069 C98.33,466.1469 97.05,500.0869 96.1,525.0969 " fill="none" id="outgoing-to-producer" style="stroke:#181818;stroke-width:1.0;stroke-dasharray:1.0,3.0;"/><polygon fill="#181818" points="95.91,530.2869,100.2422,521.442,96.0961,525.2903,92.2478,521.1442,95.91,530.2869" style="stroke:#181818;stroke-width:1.0;"/><text fill="#000000" font-family="sans-serif" font-size="13" lengthAdjust="spacing" textLength="27" x="98" y="496.3638">Ping</text></g><!--MD5=[b1f03a2ded618271af6502f176a6f141]
@startuml
title Ping Client State Machine
state StateMachineRunner {
        state start <<entryPoint>>
        state incoming <<entryPoint>>
        start -> PingState
        PingState : ping_to_send: Ping
        PingState : received_pong: Option<Pong>
        PingState -[dotted]-> outgoing <<exitPoint>>: Ping\n**1**
        incoming -[dotted]-> PingState: Pong\n**2**
        PingState - -> terminal <<exitPoint>>: **3**
}
[*] - -> start
terminal - -> [*]
consumer -[dotted]-> incoming: Pong
outgoing -[dotted]-> producer: Ping
@enduml

PlantUML version 1.2022.7(Mon Aug 22 19:01:30 CEST 2022)
(GPL source distribution)
Java Runtime: OpenJDK Runtime Environment
JVM: OpenJDK 64-Bit Server VM
Default Encoding: UTF-8
Language: en
Country: US
--></g></svg>