<?xml version="1.0" encoding="UTF-8" standalone="no"?><svg xmlns="http://www.w3.org/2000/svg" xmlns:xlink="http://www.w3.org/1999/xlink" contentStyleType="text/css" height="500px" preserveAspectRatio="none" style="width:335px;height:500px;background:#FFFFFF;" version="1.1" viewBox="0 0 335 500" width="335px" zoomAndPan="magnify"><defs/><g><!--MD5=[0f5afef98de99d3a6de16f0f78283b30]
cluster StateMachineRunner--><g id="cluster_StateMachineRunner"><rect height="221" rx="12.5" ry="12.5" style="stroke:#181818;stroke-width:0.5;fill:none;" width="314" x="7" y="140"/><rect height="192.7031" rx="12.5" ry="12.5" style="stroke:#00000000;stroke-width:1.0;fill:none;" width="312" x="8" y="167.2969"/><line style="stroke:#181818;stroke-width:0.5;fill:none;" x1="7" x2="321" y1="166.2969" y2="166.2969"/><text fill="#000000" font-family="sans-serif" font-size="14" lengthAdjust="spacing" textLength="145" x="91.5" y="157.9951">StateMachineRunner</text></g><text fill="#000000" font-family="sans-serif" font-size="14" lengthAdjust="spacing" textLength="31" x="60.5" y="118.6982">start</text><ellipse cx="76" cy="140" fill="#F1F1F1" rx="6" ry="6" style="stroke:#181818;stroke-width:1.5;"/><text fill="#000000" font-family="sans-serif" font-size="14" lengthAdjust="spacing" textLength="63" x="171.5" y="118.6982">incoming</text><ellipse cx="203" cy="140" fill="#F1F1F1" rx="6" ry="6" style="stroke:#181818;stroke-width:1.5;"/><g id="StateMachineRunner.SendingPing"><rect fill="#F1F1F1" height="50" rx="12.5" ry="12.5" style="stroke:#181818;stroke-width:0.5;" width="107" x="22.5" y="228"/><line style="stroke:#181818;stroke-width:0.5;" x1="22.5" x2="129.5" y1="254.2969" y2="254.2969"/><text fill="#000000" font-family="sans-serif" font-size="14" lengthAdjust="spacing" textLength="87" x="32.5" y="245.9951">SendingPing</text></g><text fill="#000000" font-family="sans-serif" font-size="14" lengthAdjust="spacing" textLength="62" x="27" y="379.9951">outgoing</text><ellipse cx="58" cy="361" fill="#F1F1F1" rx="6" ry="6" style="stroke:#181818;stroke-width:1.5;"/><line style="stroke:#181818;stroke-width:1.5;" x1="62.3891" x2="54.6109" y1="365.3891" y2="357.6109"/><line style="stroke:#181818;stroke-width:1.5;" x1="62.3891" x2="54.6109" y1="357.6109" y2="365.3891"/><g id="StateMachineRunner.ListeningForPong"><rect fill="#F1F1F1" height="50" rx="12.5" ry="12.5" style="stroke:#181818;stroke-width:0.5;" width="140" x="165" y="228"/><line style="stroke:#181818;stroke-width:0.5;" x1="165" x2="305" y1="254.2969" y2="254.2969"/><text fill="#000000" font-family="sans-serif" font-size="14" lengthAdjust="spacing" textLength="120" x="175" y="245.9951">ListeningForPong</text></g><text fill="#000000" font-family="sans-serif" font-size="14" lengthAdjust="spacing" textLength="55" x="175.5" y="379.9951">terminal</text><ellipse cx="203" cy="361" fill="#F1F1F1" rx="6" ry="6" style="stroke:#181818;stroke-width:1.5;"/><line style="stroke:#181818;stroke-width:1.5;" x1="207.3891" x2="199.6109" y1="365.3891" y2="357.6109"/><line style="stroke:#181818;stroke-width:1.5;" x1="207.3891" x2="199.6109" y1="357.6109" y2="365.3891"/><ellipse cx="76" cy="32" fill="#222222" rx="10" ry="10" style="stroke:none;stroke-width:1.0;"/><ellipse cx="203" cy="469" fill="none" rx="10" ry="10" style="stroke:#222222;stroke-width:1.0;"/><ellipse cx="203.5" cy="469.5" fill="#222222" rx="6" ry="6" style="stroke:none;stroke-width:1.0;"/><g id="consumer"><rect fill="#F1F1F1" height="50" rx="12.5" ry="12.5" style="stroke:#181818;stroke-width:0.5;" width="90" x="158" y="7"/><line style="stroke:#181818;stroke-width:0.5;" x1="158" x2="248" y1="33.2969" y2="33.2969"/><text fill="#000000" font-family="sans-serif" font-size="14" lengthAdjust="spacing" textLength="70" x="168" y="24.9951">consumer</text></g><g id="producer"><rect fill="#F1F1F1" height="50" rx="12.5" ry="12.5" style="stroke:#181818;stroke-width:0.5;" width="83" x="16.5" y="444"/><line style="stroke:#181818;stroke-width:0.5;" x1="16.5" x2="99.5" y1="470.2969" y2="470.2969"/><text fill="#000000" font-family="sans-serif" font-size="14" lengthAdjust="spacing" textLength="63" x="26.5" y="461.9951">producer</text></g><!--MD5=[68ae48e4214209c709afa2840f2a9642]
link start to SendingPing--><g id="link_start_SendingPing"><path d="M76,146.06 C76,159.34 76,196 76,222.48 " fill="none" id="start-to-SendingPing" style="stroke:#181818;stroke-width:1.0;"/><polygon fill="#181818" points="76,227.63,80,218.63,76,222.63,72,218.63,76,227.63" style="stroke:#181818;stroke-width:1.0;"/><text fill="#000000" font-family="sans-serif" font-size="13" lengthAdjust="spacing" textLength="66" x="77" y="189.0669">session_id</text></g><!--MD5=[43d8fd533964537e8644d4dcb7fd4bd8]
link SendingPing to outgoing--><g id="link_SendingPing_outgoing"><path d="M64.4,278.17 C60.61,287.29 56.89,297.92 55,308 C53.61,315.43 54.68,317.45 55,325 C55.36,333.38 56.2,342.85 56.9,349.83 " fill="none" id="SendingPing-to-outgoing" style="stroke:#181818;stroke-width:1.0;stroke-dasharray:1.0,3.0;"/><polygon fill="#181818" points="57.44,355.02,60.4927,345.6562,56.9255,350.0465,52.5351,346.4794,57.44,355.02" style="stroke:#181818;stroke-width:1.0;"/><text fill="#000000" font-family="sans-serif" font-size="13" lengthAdjust="spacing" textLength="103" x="56" y="321.0669">Ping(session_id)</text></g><!--MD5=[dfa0cda30f07c96e888f76c26747a0c1]
link SendingPing to ListeningForPong--><g id="link_SendingPing_ListeningForPong"><path d="M129.72,253 C139.65,253 149.57,253 159.49,253 " fill="none" id="SendingPing-to-ListeningForPong" style="stroke:#181818;stroke-width:1.0;"/><polygon fill="#181818" points="164.68,253,155.68,249,159.68,253,155.68,257,164.68,253" style="stroke:#181818;stroke-width:1.0;"/></g><!--MD5=[92c1e9c6a451baa1e14a2699d1274c2f]
link incoming to ListeningForPong--><g id="link_incoming_ListeningForPong"><path d="M204.46,146.06 C208.3,159.39 218.94,196.31 226.58,222.81 " fill="none" id="incoming-to-ListeningForPong" style="stroke:#181818;stroke-width:1.0;stroke-dasharray:1.0,3.0;"/><polygon fill="#181818" points="227.97,227.63,229.3168,217.8737,226.5832,222.8262,221.6307,220.0926,227.97,227.63" style="stroke:#181818;stroke-width:1.0;"/><text fill="#000000" font-family="sans-serif" font-size="13" lengthAdjust="spacing" textLength="108" x="218" y="189.0669">Pong(session_id)</text></g><!--MD5=[8596a9209bc4511faa081ca94e8f1ff2]
link ListeningForPong to terminal--><g id="link_ListeningForPong_terminal"><path d="M227.74,278.05 C220.85,300.88 210.83,334.05 205.93,350.3 " fill="none" id="ListeningForPong-to-terminal" style="stroke:#181818;stroke-width:1.0;"/><polygon fill="#181818" points="204.47,355.12,210.8977,347.6577,205.9133,350.3328,203.2382,345.3485,204.47,355.12" style="stroke:#181818;stroke-width:1.0;"/><text fill="#000000" font-family="sans-serif" font-size="13" lengthAdjust="spacing" textLength="108" x="219" y="321.0669">Pong(session_id)</text></g><!--MD5=[dd85dc063561b54f5230c9b8c6f8ed31]
link *start to start--><g id="link_*start_start"><path d="M76,42.04 C76,61.62 76,107.89 76,128.63 " fill="none" id="*start-to-start" style="stroke:#181818;stroke-width:1.0;"/><polygon fill="#181818" points="76,133.76,80,124.76,76,128.76,72,124.76,76,133.76" style="stroke:#181818;stroke-width:1.0;"/><text fill="#000000" font-family="sans-serif" font-size="13" lengthAdjust="spacing" textLength="66" x="77" y="100.0669">session_id</text></g><!--MD5=[8923de9e81a79b46e2426870fdd5ec11]
link terminal to *end--><g id="link_terminal_*end"><path d="M203,367.11 C203,382.66 203,429.75 203,453.69 " fill="none" id="terminal-to-*end" style="stroke:#181818;stroke-width:1.0;"/><polygon fill="#181818" points="203,458.98,207,449.98,203,453.98,199,449.98,203,458.98" style="stroke:#181818;stroke-width:1.0;"/><text fill="#000000" font-family="sans-serif" font-size="13" lengthAdjust="spacing" textLength="108" x="204" y="410.0669">Pong(session_id)</text></g><!--MD5=[9fc4cd08d2652f88e665f6a8dbfacba8]
link consumer to incoming--><g id="link_consumer_incoming"><path d="M203,57.05 C203,79.47 203,111.84 203,128.39 " fill="none" id="consumer-to-incoming" style="stroke:#181818;stroke-width:1.0;stroke-dasharray:1.0,3.0;"/><polygon fill="#181818" points="203,133.72,207,124.72,203,128.72,199,124.72,203,133.72" style="stroke:#181818;stroke-width:1.0;"/><text fill="#000000" font-family="sans-serif" font-size="13" lengthAdjust="spacing" textLength="108" x="204" y="100.0669">Pong(session_id)</text></g><!--MD5=[50ac86da0313fef5d1955c88b48ebd5e]
link outgoing to producer--><g id="link_outgoing_producer"><path d="M58,367.11 C58,379.85 58,413.79 58,438.8 " fill="none" id="outgoing-to-producer" style="stroke:#181818;stroke-width:1.0;stroke-dasharray:1.0,3.0;"/><polygon fill="#181818" points="58,443.99,62,434.99,58,438.99,54,434.99,58,443.99" style="stroke:#181818;stroke-width:1.0;"/><text fill="#000000" font-family="sans-serif" font-size="13" lengthAdjust="spacing" textLength="103" x="59" y="410.0669">Ping(session_id)</text></g><!--MD5=[d6e99248ef6918eb48a5f82a0fd07922]
@startuml
state StateMachineRunner {
        state start <<entryPoint>>
        state incoming <<entryPoint>>
        start - -> SendingPing: session_id
        SendingPing -[dotted]-> outgoing <<exitPoint>>: Ping(session_id)
        SendingPing -> ListeningForPong
        incoming -[dotted]-> ListeningForPong: Pong(session_id)
        ListeningForPong -> terminal <<exitPoint>>: Pong(session_id)
}
[*] - -> start: session_id
terminal - -> [*]: Pong(session_id)
consumer -[dotted]-> incoming: Pong(session_id)
outgoing -[dotted]-> producer: Ping(session_id)
@enduml

PlantUML version 1.2022.2(Sat Mar 05 17:30:19 CET 2022)
(GPL source distribution)
Java Runtime: OpenJDK Runtime Environment
JVM: OpenJDK 64-Bit Server VM
Default Encoding: UTF-8
Language: en
Country: US
--></g></svg>