<?xml version="1.0" encoding="UTF-8" standalone="no"?><svg xmlns="http://www.w3.org/2000/svg" xmlns:xlink="http://www.w3.org/1999/xlink" contentStyleType="text/css" height="63px" preserveAspectRatio="none" style="width:472px;height:63px;background:#FFFFFF;" version="1.1" viewBox="0 0 472 63" width="472px" zoomAndPan="magnify"><defs/><g><ellipse cx="16" cy="32" fill="#222222" rx="10" ry="10" style="stroke:none;stroke-width:1.0;"/><g id="SendingPing"><rect fill="#F1F1F1" height="50" rx="12.5" ry="12.5" style="stroke:#181818;stroke-width:0.5;" width="107" x="73.5" y="7"/><line style="stroke:#181818;stroke-width:0.5;" x1="73.5" x2="180.5" y1="33.2969" y2="33.2969"/><text fill="#000000" font-family="sans-serif" font-size="14" lengthAdjust="spacing" textLength="87" x="83.5" y="24.9951">SendingPing</text></g><g id="ListeningForPong"><rect fill="#F1F1F1" height="50" rx="12.5" ry="12.5" style="stroke:#181818;stroke-width:0.5;" width="140" x="216" y="7"/><line style="stroke:#181818;stroke-width:0.5;" x1="216" x2="356" y1="33.2969" y2="33.2969"/><text fill="#000000" font-family="sans-serif" font-size="14" lengthAdjust="spacing" textLength="120" x="226" y="24.9951">ListeningForPong</text></g><ellipse cx="456" cy="32" fill="none" rx="10" ry="10" style="stroke:#222222;stroke-width:1.0;"/><ellipse cx="456.5" cy="32.5" fill="#222222" rx="6" ry="6" style="stroke:none;stroke-width:1.0;"/><!--MD5=[195639df571e308e98295012c6f9c899]
link *start to SendingPing--><g id="link_*start_SendingPing"><path d="M26.24,32 C36.17,32 52.06,32 68.32,32 " fill="none" id="*start-to-SendingPing" style="stroke:#181818;stroke-width:1.0;"/><polygon fill="#181818" points="73.37,32,64.37,28,68.37,32,64.37,36,73.37,32" style="stroke:#181818;stroke-width:1.0;"/><text fill="#000000" font-family="sans-serif" font-size="13" lengthAdjust="spacing" textLength="11" x="44.25" y="25.0669">id</text></g><!--MD5=[dfa0cda30f07c96e888f76c26747a0c1]
link SendingPing to ListeningForPong--><g id="link_SendingPing_ListeningForPong"><path d="M180.72,32 C190.65,32 200.57,32 210.49,32 " fill="none" id="SendingPing-to-ListeningForPong" style="stroke:#181818;stroke-width:1.0;"/><polygon fill="#181818" points="215.68,32,206.68,28,210.68,32,206.68,36,215.68,32" style="stroke:#181818;stroke-width:1.0;"/></g><!--MD5=[27bc0982c4168ae1b549419fd90d190d]
link ListeningForPong to *end--><g id="link_ListeningForPong_*end"><path d="M356.13,32 C387.29,32 421.21,32 440.41,32 " fill="none" id="ListeningForPong-to-*end" style="stroke:#181818;stroke-width:1.0;"/><polygon fill="#181818" points="445.88,32,436.88,28,440.88,32,436.88,36,445.88,32" style="stroke:#181818;stroke-width:1.0;"/><text fill="#000000" font-family="sans-serif" font-size="13" lengthAdjust="spacing" textLength="53" x="374.5" y="25.0669">Pong(id)</text></g><!--MD5=[b5f97330f8d83db2039d3926a4da74f8]
@startuml
[*] -> SendingPing: id
SendingPing -> ListeningForPong
ListeningForPong -> [*]: Pong(id)
@enduml

PlantUML version 1.2022.2(Sat Mar 05 17:30:19 CET 2022)
(GPL source distribution)
Java Runtime: OpenJDK Runtime Environment
JVM: OpenJDK 64-Bit Server VM
Default Encoding: UTF-8
Language: en
Country: US
--></g></svg>