<?xml version="1.0" encoding="UTF-8" standalone="no"?><svg xmlns="http://www.w3.org/2000/svg" xmlns:xlink="http://www.w3.org/1999/xlink" contentStyleType="text/css" height="63px" preserveAspectRatio="none" style="width:622px;height:63px;background:#FFFFFF;" version="1.1" viewBox="0 0 622 63" width="622px" zoomAndPan="magnify"><defs/><g><ellipse cx="16" cy="32" fill="#222222" rx="10" ry="10" style="stroke:none;stroke-width:1.0;"/><g id="SendingPing"><rect fill="#F1F1F1" height="50" rx="12.5" ry="12.5" style="stroke:#181818;stroke-width:0.5;" width="107" x="148.5" y="7"/><line style="stroke:#181818;stroke-width:0.5;" x1="148.5" x2="255.5" y1="33.2969" y2="33.2969"/><text fill="#000000" font-family="sans-serif" font-size="14" lengthAdjust="spacing" textLength="87" x="158.5" y="24.9951">SendingPing</text></g><g id="ListeningForPong"><rect fill="#F1F1F1" height="50" rx="12.5" ry="12.5" style="stroke:#181818;stroke-width:0.5;" width="140" x="291" y="7"/><line style="stroke:#181818;stroke-width:0.5;" x1="291" x2="431" y1="33.2969" y2="33.2969"/><text fill="#000000" font-family="sans-serif" font-size="14" lengthAdjust="spacing" textLength="120" x="301" y="24.9951">ListeningForPong</text></g><ellipse cx="606" cy="32" fill="none" rx="10" ry="10" style="stroke:#222222;stroke-width:1.0;"/><ellipse cx="606.5" cy="32.5" fill="#222222" rx="6" ry="6" style="stroke:none;stroke-width:1.0;"/><!--MD5=[195639df571e308e98295012c6f9c899]
link *start to SendingPing--><g id="link_*start_SendingPing"><path d="M26,32 C47.75,32 100.81,32 143.02,32 " fill="none" id="*start-to-SendingPing" style="stroke:#181818;stroke-width:1.0;"/><polygon fill="#181818" points="148.11,32,139.11,28,143.11,32,139.11,36,148.11,32" style="stroke:#181818;stroke-width:1.0;"/><text fill="#000000" font-family="sans-serif" font-size="13" lengthAdjust="spacing" textLength="86" x="44.25" y="25.0669">correlation_id</text></g><!--MD5=[dfa0cda30f07c96e888f76c26747a0c1]
link SendingPing to ListeningForPong--><g id="link_SendingPing_ListeningForPong"><path d="M255.72,32 C265.65,32 275.57,32 285.49,32 " fill="none" id="SendingPing-to-ListeningForPong" style="stroke:#181818;stroke-width:1.0;"/><polygon fill="#181818" points="290.68,32,281.68,28,285.68,32,281.68,36,290.68,32" style="stroke:#181818;stroke-width:1.0;"/></g><!--MD5=[27bc0982c4168ae1b549419fd90d190d]
link ListeningForPong to *end--><g id="link_ListeningForPong_*end"><path d="M431.21,32 C486.32,32 558.81,32 590.29,32 " fill="none" id="ListeningForPong-to-*end" style="stroke:#181818;stroke-width:1.0;"/><polygon fill="#181818" points="595.67,32,586.67,28,590.67,32,586.67,36,595.67,32" style="stroke:#181818;stroke-width:1.0;"/><text fill="#000000" font-family="sans-serif" font-size="13" lengthAdjust="spacing" textLength="128" x="449.5" y="25.0669">Pong(correlation_id)</text></g><!--MD5=[e20db48a599ff6c561347ea162aa9870]
@startuml
[*] -> SendingPing: correlation_id
SendingPing -> ListeningForPong
ListeningForPong -> [*]: Pong(correlation_id)
@enduml

PlantUML version 1.2022.2(Sat Mar 05 17:30:19 CET 2022)
(GPL source distribution)
Java Runtime: OpenJDK Runtime Environment
JVM: OpenJDK 64-Bit Server VM
Default Encoding: UTF-8
Language: en
Country: US
--></g></svg>