<?xml version="1.0" encoding="UTF-8" standalone="no"?><svg xmlns="http://www.w3.org/2000/svg" xmlns:xlink="http://www.w3.org/1999/xlink" contentStyleType="text/css" height="63px" preserveAspectRatio="none" style="width:619px;height:63px;background:#FFFFFF;" version="1.1" viewBox="0 0 619 63" width="619px" zoomAndPan="magnify"><defs/><g><ellipse cx="16" cy="32" fill="#222222" rx="10" ry="10" style="stroke:none;stroke-width:1.0;"/><g id="ListeningForPing"><rect fill="#F1F1F1" height="50" rx="12.5" ry="12.5" style="stroke:#181818;stroke-width:0.5;" width="134" x="61" y="7"/><line style="stroke:#181818;stroke-width:0.5;" x1="61" x2="195" y1="33.2969" y2="33.2969"/><text fill="#000000" font-family="sans-serif" font-size="14" lengthAdjust="spacing" textLength="114" x="71" y="24.9951">ListeningForPing</text></g><g id="SendingPong"><rect fill="#F1F1F1" height="50" rx="12.5" ry="12.5" style="stroke:#181818;stroke-width:0.5;" width="113" x="258.5" y="7"/><line style="stroke:#181818;stroke-width:0.5;" x1="258.5" x2="371.5" y1="33.2969" y2="33.2969"/><text fill="#000000" font-family="sans-serif" font-size="14" lengthAdjust="spacing" textLength="93" x="268.5" y="24.9951">SendingPong</text></g><g id="SentPong"><rect fill="#F1F1F1" height="50" rx="12.5" ry="12.5" style="stroke:#181818;stroke-width:0.5;" width="88" x="470" y="7"/><line style="stroke:#181818;stroke-width:0.5;" x1="470" x2="558" y1="33.2969" y2="33.2969"/><text fill="#000000" font-family="sans-serif" font-size="14" lengthAdjust="spacing" textLength="68" x="480" y="24.9951">SentPong</text></g><ellipse cx="603" cy="32" fill="none" rx="10" ry="10" style="stroke:#222222;stroke-width:1.0;"/><ellipse cx="603.5" cy="32.5" fill="#222222" rx="6" ry="6" style="stroke:none;stroke-width:1.0;"/><!--MD5=[791932fc708bdc0d985211ad34e8b2e8]
link *start to ListeningForPing--><g id="link_*start_ListeningForPing"><path d="M26.06,32 C35.9,32 45.73,32 55.56,32 " fill="none" id="*start-to-ListeningForPing" style="stroke:#181818;stroke-width:1.0;"/><polygon fill="#181818" points="60.71,32,51.71,28,55.71,32,51.71,36,60.71,32" style="stroke:#181818;stroke-width:1.0;"/></g><!--MD5=[2c0168fea2936e30711a57728b1c0836]
link ListeningForPing to SendingPong--><g id="link_ListeningForPing_SendingPong"><path d="M195.25,32 C214.1,32 234.51,32 253.04,32 " fill="none" id="ListeningForPing-to-SendingPong" style="stroke:#181818;stroke-width:1.0;"/><polygon fill="#181818" points="258.21,32,249.21,28,253.21,32,249.21,36,258.21,32" style="stroke:#181818;stroke-width:1.0;"/><text fill="#000000" font-family="sans-serif" font-size="13" lengthAdjust="spacing" textLength="27" x="213.25" y="25.0669">Ping</text></g><!--MD5=[2d8c9c593975212873ed1343104bb022]
link SendingPong to SentPong--><g id="link_SendingPong_SentPong"><path d="M371.76,32 C401.07,32 436.48,32 464.65,32 " fill="none" id="SendingPong-to-SentPong" style="stroke:#181818;stroke-width:1.0;"/><polygon fill="#181818" points="469.82,32,460.82,28,464.82,32,460.82,36,469.82,32" style="stroke:#181818;stroke-width:1.0;"/><text fill="#000000" font-family="sans-serif" font-size="13" lengthAdjust="spacing" textLength="62" x="389.75" y="25.0669">PongSent</text></g><!--MD5=[71b16a690a7d0d8ccaecf0e60f86efdb]
link SentPong to *end--><g id="link_SentPong_*end"><path d="M558.15,32 C568,32 577.84,32 587.69,32 " fill="none" id="SentPong-to-*end" style="stroke:#181818;stroke-width:1.0;"/><polygon fill="#181818" points="592.84,32,583.84,28,587.84,32,583.84,36,592.84,32" style="stroke:#181818;stroke-width:1.0;"/></g><!--MD5=[cc6a9b92f48e92cbfdca8700add5a8dc]
@startuml
[*] -> ListeningForPing
ListeningForPing -> SendingPong: Ping
SendingPong -> SentPong: PongSent
SentPong -> [*]
@enduml

PlantUML version 1.2022.2(Sat Mar 05 17:30:19 CET 2022)
(GPL source distribution)
Java Runtime: OpenJDK Runtime Environment
JVM: OpenJDK 64-Bit Server VM
Default Encoding: UTF-8
Language: en
Country: US
--></g></svg>