<?xml version="1.0" encoding="UTF-8" standalone="no"?><svg xmlns="http://www.w3.org/2000/svg" xmlns:xlink="http://www.w3.org/1999/xlink" contentStyleType="text/css" height="528px" preserveAspectRatio="none" style="width:653px;height:528px;background:#FFFFFF;" version="1.1" viewBox="0 0 653 528" width="653px" zoomAndPan="magnify"><defs/><g><!--MD5=[0f5afef98de99d3a6de16f0f78283b30]
cluster StateMachineRunner--><g id="cluster_StateMachineRunner"><rect height="235" rx="12.5" ry="12.5" style="stroke:#181818;stroke-width:0.5;fill:none;" width="499" x="7" y="154"/><rect height="206.7031" rx="12.5" ry="12.5" style="stroke:#00000000;stroke-width:1.0;fill:none;" width="497" x="8" y="181.2969"/><line style="stroke:#181818;stroke-width:0.5;fill:none;" x1="7" x2="506" y1="180.2969" y2="180.2969"/><text fill="#000000" font-family="sans-serif" font-size="14" lengthAdjust="spacing" textLength="145" x="184" y="171.9951">StateMachineRunner</text></g><text fill="#000000" font-family="sans-serif" font-size="14" lengthAdjust="spacing" textLength="31" x="74.5" y="132.6982">start</text><ellipse cx="90" cy="154" fill="#F1F1F1" rx="6" ry="6" style="stroke:#181818;stroke-width:1.5;"/><text fill="#000000" font-family="sans-serif" font-size="14" lengthAdjust="spacing" textLength="63" x="402.5" y="132.6982">incoming</text><ellipse cx="434" cy="154" fill="#F1F1F1" rx="6" ry="6" style="stroke:#181818;stroke-width:1.5;"/><g id="StateMachineRunner.ListeningForPing"><rect fill="#F1F1F1" height="50" rx="12.5" ry="12.5" style="stroke:#181818;stroke-width:0.5;" width="134" x="23" y="256"/><line style="stroke:#181818;stroke-width:0.5;" x1="23" x2="157" y1="282.2969" y2="282.2969"/><text fill="#000000" font-family="sans-serif" font-size="14" lengthAdjust="spacing" textLength="114" x="33" y="273.9951">ListeningForPing</text></g><g id="StateMachineRunner.SentPong"><rect fill="#F1F1F1" height="50" rx="12.5" ry="12.5" style="stroke:#181818;stroke-width:0.5;" width="88" x="402" y="256"/><line style="stroke:#181818;stroke-width:0.5;" x1="402" x2="490" y1="282.2969" y2="282.2969"/><text fill="#000000" font-family="sans-serif" font-size="14" lengthAdjust="spacing" textLength="68" x="412" y="273.9951">SentPong</text></g><g id="StateMachineRunner.SendingPong"><rect fill="#F1F1F1" height="50" rx="12.5" ry="12.5" style="stroke:#181818;stroke-width:0.5;" width="113" x="220.5" y="256"/><line style="stroke:#181818;stroke-width:0.5;" x1="220.5" x2="333.5" y1="282.2969" y2="282.2969"/><text fill="#000000" font-family="sans-serif" font-size="14" lengthAdjust="spacing" textLength="93" x="230.5" y="273.9951">SendingPong</text></g><text fill="#000000" font-family="sans-serif" font-size="14" lengthAdjust="spacing" textLength="62" x="210" y="407.9951">outgoing</text><ellipse cx="241" cy="389" fill="#F1F1F1" rx="6" ry="6" style="stroke:#181818;stroke-width:1.5;"/><line style="stroke:#181818;stroke-width:1.5;" x1="245.3891" x2="237.6109" y1="393.3891" y2="385.6109"/><line style="stroke:#181818;stroke-width:1.5;" x1="245.3891" x2="237.6109" y1="385.6109" y2="393.3891"/><text fill="#000000" font-family="sans-serif" font-size="14" lengthAdjust="spacing" textLength="55" x="424.5" y="407.9951">terminal</text><ellipse cx="452" cy="389" fill="#F1F1F1" rx="6" ry="6" style="stroke:#181818;stroke-width:1.5;"/><line style="stroke:#181818;stroke-width:1.5;" x1="456.3891" x2="448.6109" y1="393.3891" y2="385.6109"/><line style="stroke:#181818;stroke-width:1.5;" x1="456.3891" x2="448.6109" y1="385.6109" y2="393.3891"/><ellipse cx="90" cy="32" fill="#222222" rx="10" ry="10" style="stroke:none;stroke-width:1.0;"/><ellipse cx="469" cy="497" fill="none" rx="10" ry="10" style="stroke:#222222;stroke-width:1.0;"/><ellipse cx="469.5" cy="497.5" fill="#222222" rx="6" ry="6" style="stroke:none;stroke-width:1.0;"/><g id="consumer"><rect fill="#F1F1F1" height="50" rx="12.5" ry="12.5" style="stroke:#181818;stroke-width:0.5;" width="90" x="389" y="7"/><line style="stroke:#181818;stroke-width:0.5;" x1="389" x2="479" y1="33.2969" y2="33.2969"/><text fill="#000000" font-family="sans-serif" font-size="14" lengthAdjust="spacing" textLength="70" x="399" y="24.9951">consumer</text></g><g id="producer"><rect fill="#F1F1F1" height="50" rx="12.5" ry="12.5" style="stroke:#181818;stroke-width:0.5;" width="83" x="190.5" y="472"/><line style="stroke:#181818;stroke-width:0.5;" x1="190.5" x2="273.5" y1="498.2969" y2="498.2969"/><text fill="#000000" font-family="sans-serif" font-size="14" lengthAdjust="spacing" textLength="63" x="200.5" y="489.9951">producer</text></g><g id="elem_GMN25"><path d="M308.5,477 L308.5,493 L273.61,497 L308.5,501 L308.5,517.2656 A0,0 0 0 0 308.5,517.2656 L423.5,517.2656 A0,0 0 0 0 423.5,517.2656 L423.5,487 L413.5,477 L308.5,477 A0,0 0 0 0 308.5,477 " fill="#FEFFDD" style="stroke:#181818;stroke-width:0.5;"/><path d="M413.5,477 L413.5,487 L423.5,487 L413.5,477 " fill="#FEFFDD" style="stroke:#181818;stroke-width:0.5;"/><text fill="#000000" font-family="sans-serif" font-size="13" lengthAdjust="spacing" textLength="29" x="314.5" y="494.0669">emit</text><text fill="#000000" font-family="sans-serif" font-size="13" font-style="italic" lengthAdjust="spacing" textLength="61" x="347.5" y="494.0669">PongSent</text><text fill="#000000" font-family="sans-serif" font-size="13" lengthAdjust="spacing" textLength="13" x="314.5" y="509.1997">to</text><text fill="#000000" font-family="sans-serif" font-size="13" font-weight="bold" lengthAdjust="spacing" textLength="67" x="331.5" y="509.1997">incoming</text></g><g id="elem_GMN28"><path d="M514,134 L514,150 L440.27,154 L514,158 L514,174.2656 A0,0 0 0 0 514,174.2656 L646,174.2656 A0,0 0 0 0 646,174.2656 L646,144 L636,134 L514,134 A0,0 0 0 0 514,134 " fill="#FEFFDD" style="stroke:#181818;stroke-width:0.5;"/><path d="M636,134 L636,144 L646,144 L636,134 " fill="#FEFFDD" style="stroke:#181818;stroke-width:0.5;"/><text fill="#000000" font-family="sans-serif" font-size="13" lengthAdjust="spacing" textLength="46" x="520" y="151.0669">receive</text><text fill="#000000" font-family="sans-serif" font-size="13" font-style="italic" lengthAdjust="spacing" textLength="61" x="570" y="151.0669">PongSent</text><text fill="#000000" font-family="sans-serif" font-size="13" lengthAdjust="spacing" textLength="30" x="520" y="166.1997">from</text><text fill="#000000" font-family="sans-serif" font-size="13" font-weight="bold" lengthAdjust="spacing" textLength="67" x="554" y="166.1997">producer</text></g><!--MD5=[e4038ce18da83e904fda2f35330a7295]
link start to ListeningForPing--><g id="link_start_ListeningForPing"><path d="M90,160.05 C90,175.08 90,220.31 90,250.73 " fill="none" id="start-to-ListeningForPing" style="stroke:#181818;stroke-width:1.0;"/><polygon fill="#181818" points="90,255.86,94,246.86,90,250.86,86,246.86,90,255.86" style="stroke:#181818;stroke-width:1.0;"/></g><!--MD5=[c3da51ce7a948579c5b8e0d7e0e6b2ed]
link incoming to ListeningForPing--><g id="link_incoming_ListeningForPing"><path d="M428.2,156.59 C401.87,163.88 291.05,195.15 203,229 C183.74,236.4 163.05,245.42 144.72,253.79 " fill="none" id="incoming-to-ListeningForPing" style="stroke:#181818;stroke-width:1.0;stroke-dasharray:1.0,3.0;"/><polygon fill="#181818" points="140.11,255.91,149.9581,255.79,144.654,253.8238,146.6202,248.5196,140.11,255.91" style="stroke:#181818;stroke-width:1.0;"/><text fill="#000000" font-family="sans-serif" font-size="13" lengthAdjust="spacing" textLength="27" x="273" y="217.0669">Ping</text></g><!--MD5=[715316d1de0787b4844f94b5409ba43c]
link incoming to SentPong--><g id="link_incoming_SentPong"><path d="M434.49,160.05 C435.93,175.08 440.27,220.31 443.19,250.73 " fill="none" id="incoming-to-SentPong" style="stroke:#181818;stroke-width:1.0;stroke-dasharray:1.0,3.0;"/><polygon fill="#181818" points="443.68,255.86,446.7885,246.5146,443.1952,250.8836,438.8262,247.2903,443.68,255.86" style="stroke:#181818;stroke-width:1.0;"/><text fill="#000000" font-family="sans-serif" font-size="13" lengthAdjust="spacing" textLength="62" x="441" y="217.0669">PongSent</text></g><!--MD5=[2c0168fea2936e30711a57728b1c0836]
link ListeningForPing to SendingPong--><g id="link_ListeningForPing_SendingPong"><path d="M157.25,281 C176.1,281 196.51,281 215.04,281 " fill="none" id="ListeningForPing-to-SendingPong" style="stroke:#181818;stroke-width:1.0;"/><polygon fill="#181818" points="220.21,281,211.21,277,215.21,281,211.21,285,220.21,281" style="stroke:#181818;stroke-width:1.0;"/><text fill="#000000" font-family="sans-serif" font-size="13" lengthAdjust="spacing" textLength="27" x="175.25" y="274.0669">Ping</text></g><!--MD5=[0ac59f5192faacdad96235bbd73035b8]
link SendingPong to outgoing--><g id="link_SendingPong_outgoing"><path d="M268.83,306.05 C261.08,328.88 249.81,362.05 244.3,378.3 " fill="none" id="SendingPong-to-outgoing" style="stroke:#181818;stroke-width:1.0;stroke-dasharray:1.0,3.0;"/><polygon fill="#181818" points="242.66,383.12,249.3532,375.895,244.2754,378.3881,241.7822,373.3103,242.66,383.12" style="stroke:#181818;stroke-width:1.0;"/><text fill="#000000" font-family="sans-serif" font-size="13" lengthAdjust="spacing" textLength="32" x="258" y="349.0669">Pong</text></g><!--MD5=[2d8c9c593975212873ed1343104bb022]
link SendingPong to SentPong--><g id="link_SendingPong_SentPong"><path d="M333.74,281 C354.17,281 377.02,281 396.75,281 " fill="none" id="SendingPong-to-SentPong" style="stroke:#181818;stroke-width:1.0;"/><polygon fill="#181818" points="401.96,281,392.96,277,396.96,281,392.96,285,401.96,281" style="stroke:#181818;stroke-width:1.0;"/><text fill="#000000" font-family="sans-serif" font-size="13" lengthAdjust="spacing" textLength="32" x="351.75" y="274.0669">Pong</text></g><!--MD5=[4e13e31228a1b2cf558ee80e866c9430]
link SentPong to terminal--><g id="link_SentPong_terminal"><path d="M447.36,306.05 C448.63,328.47 450.46,360.84 451.4,377.39 " fill="none" id="SentPong-to-terminal" style="stroke:#181818;stroke-width:1.0;"/><polygon fill="#181818" points="451.7,382.72,455.18,373.5065,451.4148,377.7281,447.1931,373.9629,451.7,382.72" style="stroke:#181818;stroke-width:1.0;"/><text fill="#000000" font-family="sans-serif" font-size="13" lengthAdjust="spacing" textLength="32" x="450" y="349.0669">Pong</text></g><!--MD5=[dd85dc063561b54f5230c9b8c6f8ed31]
link *start to start--><g id="link_*start_start"><path d="M90,42.02 C90,63.93 90,119.83 90,142.86 " fill="none" id="*start-to-start" style="stroke:#181818;stroke-width:1.0;"/><polygon fill="#181818" points="90,147.96,94,138.96,90,142.96,86,138.96,90,147.96" style="stroke:#181818;stroke-width:1.0;"/></g><!--MD5=[8923de9e81a79b46e2426870fdd5ec11]
link terminal to *end--><g id="link_terminal_*end"><path d="M452.82,395.11 C455.32,410.72 462.93,458.15 466.75,481.99 " fill="none" id="terminal-to-*end" style="stroke:#181818;stroke-width:1.0;"/><polygon fill="#181818" points="467.55,486.98,470.0607,477.4565,466.7511,482.0442,462.1634,478.7347,467.55,486.98" style="stroke:#181818;stroke-width:1.0;"/><text fill="#000000" font-family="sans-serif" font-size="13" lengthAdjust="spacing" textLength="32" x="460" y="438.0669">Pong</text></g><!--MD5=[9fc4cd08d2652f88e665f6a8dbfacba8]
link consumer to incoming--><g id="link_consumer_incoming"><path d="M434,57.28 C434,83.35 434,123.56 434,142.48 " fill="none" id="consumer-to-incoming" style="stroke:#181818;stroke-width:1.0;stroke-dasharray:1.0,3.0;"/><polygon fill="#181818" points="434,147.63,438,138.63,434,142.63,430,138.63,434,147.63" style="stroke:#181818;stroke-width:1.0;"/><text fill="#000000" font-family="sans-serif" font-size="13" lengthAdjust="spacing" textLength="27" x="435" y="100.0669">Ping</text></g><!--MD5=[50ac86da0313fef5d1955c88b48ebd5e]
link outgoing to producer--><g id="link_outgoing_producer"><path d="M240.57,395.11 C239.48,407.85 236.6,441.79 234.48,466.8 " fill="none" id="outgoing-to-producer" style="stroke:#181818;stroke-width:1.0;stroke-dasharray:1.0,3.0;"/><polygon fill="#181818" points="234.04,471.99,238.7961,463.3656,234.4682,467.0084,230.8255,462.6805,234.04,471.99" style="stroke:#181818;stroke-width:1.0;"/><text fill="#000000" font-family="sans-serif" font-size="13" lengthAdjust="spacing" textLength="32" x="238" y="438.0669">Pong</text></g><!--MD5=[886b4013e7377b88b2bea2e5bc593f8f]
@startuml
state StateMachineRunner {
        state start <<entryPoint>>
        state incoming <<entryPoint>>
        start - -> ListeningForPing
        incoming -[dotted]-> ListeningForPing: Ping
        incoming -[dotted]-> SentPong: PongSent
        ListeningForPing -> SendingPong: Ping
        SendingPong -[dotted]-> outgoing <<exitPoint>>: Pong
        SendingPong -> SentPong: Pong
        SentPong -> terminal <<exitPoint>>: Pong
}
[*] - -> start
terminal - -> [*]: Pong
consumer -[dotted]-> incoming: Ping
outgoing -[dotted]-> producer: Pong
note right of producer
        emit //PongSent//
        to **incoming**
end note
note right of incoming
        receive //PongSent//
        from **producer**
end note
@enduml

PlantUML version 1.2022.2(Sat Mar 05 17:30:19 CET 2022)
(GPL source distribution)
Java Runtime: OpenJDK Runtime Environment
JVM: OpenJDK 64-Bit Server VM
Default Encoding: UTF-8
Language: en
Country: US
--></g></svg>