<?xml version="1.0" encoding="UTF-8" standalone="no"?><svg xmlns="http://www.w3.org/2000/svg" xmlns:xlink="http://www.w3.org/1999/xlink" contentStyleType="text/css" height="528px" preserveAspectRatio="none" style="width:497px;height:528px;background:#FFFFFF;" version="1.1" viewBox="0 0 497 528" width="497px" zoomAndPan="magnify"><defs/><g><!--MD5=[0f5afef98de99d3a6de16f0f78283b30]
cluster StateMachineRunner--><g id="cluster_StateMachineRunner"><rect height="235" rx="12.5" ry="12.5" style="stroke:#181818;stroke-width:0.5;fill:none;" width="343" x="7" y="154"/><rect height="206.7031" rx="12.5" ry="12.5" style="stroke:#00000000;stroke-width:1.0;fill:none;" width="341" x="8" y="181.2969"/><line style="stroke:#181818;stroke-width:0.5;fill:none;" x1="7" x2="350" y1="180.2969" y2="180.2969"/><text fill="#000000" font-family="sans-serif" font-size="14" lengthAdjust="spacing" textLength="145" x="106" y="171.9951">StateMachineRunner</text></g><text fill="#000000" font-family="sans-serif" font-size="14" lengthAdjust="spacing" textLength="31" x="74.5" y="132.6982">start</text><ellipse cx="90" cy="154" fill="#F1F1F1" rx="6" ry="6" style="stroke:#181818;stroke-width:1.5;"/><text fill="#000000" font-family="sans-serif" font-size="14" lengthAdjust="spacing" textLength="63" x="245.5" y="132.6982">incoming</text><ellipse cx="277" cy="154" fill="#F1F1F1" rx="6" ry="6" style="stroke:#181818;stroke-width:1.5;"/><g id="StateMachineRunner.ListeningForPing"><rect fill="#F1F1F1" height="50" rx="12.5" ry="12.5" style="stroke:#181818;stroke-width:0.5;" width="134" x="23" y="256"/><line style="stroke:#181818;stroke-width:0.5;" x1="23" x2="157" y1="282.2969" y2="282.2969"/><text fill="#000000" font-family="sans-serif" font-size="14" lengthAdjust="spacing" textLength="114" x="33" y="273.9951">ListeningForPing</text></g><g id="StateMachineRunner.SendingPong"><rect fill="#F1F1F1" height="50" rx="12.5" ry="12.5" style="stroke:#181818;stroke-width:0.5;" width="113" x="220.5" y="256"/><line style="stroke:#181818;stroke-width:0.5;" x1="220.5" x2="333.5" y1="282.2969" y2="282.2969"/><text fill="#000000" font-family="sans-serif" font-size="14" lengthAdjust="spacing" textLength="93" x="230.5" y="273.9951">SendingPong</text></g><text fill="#000000" font-family="sans-serif" font-size="14" lengthAdjust="spacing" textLength="62" x="92" y="407.9951">outgoing</text><ellipse cx="123" cy="389" fill="#F1F1F1" rx="6" ry="6" style="stroke:#181818;stroke-width:1.5;"/><line style="stroke:#181818;stroke-width:1.5;" x1="127.3891" x2="119.6109" y1="393.3891" y2="385.6109"/><line style="stroke:#181818;stroke-width:1.5;" x1="127.3891" x2="119.6109" y1="385.6109" y2="393.3891"/><text fill="#000000" font-family="sans-serif" font-size="14" lengthAdjust="spacing" textLength="55" x="265.5" y="407.9951">terminal</text><ellipse cx="293" cy="389" fill="#F1F1F1" rx="6" ry="6" style="stroke:#181818;stroke-width:1.5;"/><line style="stroke:#181818;stroke-width:1.5;" x1="297.3891" x2="289.6109" y1="393.3891" y2="385.6109"/><line style="stroke:#181818;stroke-width:1.5;" x1="297.3891" x2="289.6109" y1="385.6109" y2="393.3891"/><ellipse cx="90" cy="32" fill="#222222" rx="10" ry="10" style="stroke:none;stroke-width:1.0;"/><ellipse cx="336" cy="497" fill="none" rx="10" ry="10" style="stroke:#222222;stroke-width:1.0;"/><ellipse cx="336.5" cy="497.5" fill="#222222" rx="6" ry="6" style="stroke:none;stroke-width:1.0;"/><g id="consumer"><rect fill="#F1F1F1" height="50" rx="12.5" ry="12.5" style="stroke:#181818;stroke-width:0.5;" width="90" x="232" y="7"/><line style="stroke:#181818;stroke-width:0.5;" x1="232" x2="322" y1="33.2969" y2="33.2969"/><text fill="#000000" font-family="sans-serif" font-size="14" lengthAdjust="spacing" textLength="70" x="242" y="24.9951">consumer</text></g><g id="producer"><rect fill="#F1F1F1" height="50" rx="12.5" ry="12.5" style="stroke:#181818;stroke-width:0.5;" width="83" x="57.5" y="472"/><line style="stroke:#181818;stroke-width:0.5;" x1="57.5" x2="140.5" y1="498.2969" y2="498.2969"/><text fill="#000000" font-family="sans-serif" font-size="14" lengthAdjust="spacing" textLength="63" x="67.5" y="489.9951">producer</text></g><g id="elem_GMN23"><path d="M175.5,477 L175.5,493 L140.61,497 L175.5,501 L175.5,517.2656 A0,0 0 0 0 175.5,517.2656 L290.5,517.2656 A0,0 0 0 0 290.5,517.2656 L290.5,487 L280.5,477 L175.5,477 A0,0 0 0 0 175.5,477 " fill="#FEFFDD" style="stroke:#181818;stroke-width:0.5;"/><path d="M280.5,477 L280.5,487 L290.5,487 L280.5,477 " fill="#FEFFDD" style="stroke:#181818;stroke-width:0.5;"/><text fill="#000000" font-family="sans-serif" font-size="13" lengthAdjust="spacing" textLength="29" x="181.5" y="494.0669">emit</text><text fill="#000000" font-family="sans-serif" font-size="13" font-style="italic" lengthAdjust="spacing" textLength="61" x="214.5" y="494.0669">PongSent</text><text fill="#000000" font-family="sans-serif" font-size="13" lengthAdjust="spacing" textLength="13" x="181.5" y="509.1997">to</text><text fill="#000000" font-family="sans-serif" font-size="13" font-weight="bold" lengthAdjust="spacing" textLength="67" x="198.5" y="509.1997">incoming</text></g><g id="elem_GMN26"><path d="M358,134 L358,150 L283.03,154 L358,158 L358,174.2656 A0,0 0 0 0 358,174.2656 L490,174.2656 A0,0 0 0 0 490,174.2656 L490,144 L480,134 L358,134 A0,0 0 0 0 358,134 " fill="#FEFFDD" style="stroke:#181818;stroke-width:0.5;"/><path d="M480,134 L480,144 L490,144 L480,134 " fill="#FEFFDD" style="stroke:#181818;stroke-width:0.5;"/><text fill="#000000" font-family="sans-serif" font-size="13" lengthAdjust="spacing" textLength="46" x="364" y="151.0669">receive</text><text fill="#000000" font-family="sans-serif" font-size="13" font-style="italic" lengthAdjust="spacing" textLength="61" x="414" y="151.0669">PongSent</text><text fill="#000000" font-family="sans-serif" font-size="13" lengthAdjust="spacing" textLength="30" x="364" y="166.1997">from</text><text fill="#000000" font-family="sans-serif" font-size="13" font-weight="bold" lengthAdjust="spacing" textLength="67" x="398" y="166.1997">producer</text></g><!--MD5=[e4038ce18da83e904fda2f35330a7295]
link start to ListeningForPing--><g id="link_start_ListeningForPing"><path d="M90,160.05 C90,175.08 90,220.31 90,250.73 " fill="none" id="start-to-ListeningForPing" style="stroke:#181818;stroke-width:1.0;"/><polygon fill="#181818" points="90,255.86,94,246.86,90,250.86,86,246.86,90,255.86" style="stroke:#181818;stroke-width:1.0;"/></g><!--MD5=[c3da51ce7a948579c5b8e0d7e0e6b2ed]
link incoming to ListeningForPing--><g id="link_incoming_ListeningForPing"><path d="M272.38,158.09 C253.11,170.97 177.94,221.22 130.33,253.04 " fill="none" id="incoming-to-ListeningForPing" style="stroke:#181818;stroke-width:1.0;stroke-dasharray:1.0,3.0;"/><polygon fill="#181818" points="126.1,255.87,135.8033,254.1828,130.2537,253.0866,131.3499,247.537,126.1,255.87" style="stroke:#181818;stroke-width:1.0;"/><text fill="#000000" font-family="sans-serif" font-size="13" lengthAdjust="spacing" textLength="27" x="201" y="217.0669">Ping</text></g><!--MD5=[c35828683380d87c5a228ba4c423353e]
link incoming to SendingPong--><g id="link_incoming_SendingPong"><path d="M277,160.05 C277,175.08 277,220.31 277,250.73 " fill="none" id="incoming-to-SendingPong" style="stroke:#181818;stroke-width:1.0;stroke-dasharray:1.0,3.0;"/><polygon fill="#181818" points="277,255.86,281,246.86,277,250.86,273,246.86,277,255.86" style="stroke:#181818;stroke-width:1.0;"/><text fill="#000000" font-family="sans-serif" font-size="13" lengthAdjust="spacing" textLength="62" x="278" y="217.0669">PongSent</text></g><!--MD5=[2c0168fea2936e30711a57728b1c0836]
link ListeningForPing to SendingPong--><g id="link_ListeningForPing_SendingPong"><path d="M157.25,281 C176.1,281 196.51,281 215.04,281 " fill="none" id="ListeningForPing-to-SendingPong" style="stroke:#181818;stroke-width:1.0;"/><polygon fill="#181818" points="220.21,281,211.21,277,215.21,281,211.21,285,220.21,281" style="stroke:#181818;stroke-width:1.0;"/><text fill="#000000" font-family="sans-serif" font-size="13" lengthAdjust="spacing" textLength="27" x="175.25" y="274.0669">Ping</text></g><!--MD5=[0ac59f5192faacdad96235bbd73035b8]
link SendingPong to outgoing--><g id="link_SendingPong_outgoing"><path d="M242.06,306.05 C206.08,330.81 152.45,367.73 131.66,382.04 " fill="none" id="SendingPong-to-outgoing" style="stroke:#181818;stroke-width:1.0;stroke-dasharray:1.0,3.0;"/><polygon fill="#181818" points="127.53,384.88,137.2154,383.0931,131.6548,382.054,132.6938,376.4934,127.53,384.88" style="stroke:#181818;stroke-width:1.0;"/><text fill="#000000" font-family="sans-serif" font-size="13" lengthAdjust="spacing" textLength="32" x="196" y="349.0669">Pong</text></g><!--MD5=[4ee6cbdb47f3b5e4a0c535d8a1bdff0c]
link SendingPong to terminal--><g id="link_SendingPong_terminal"><path d="M280.63,306.05 C284.01,328.47 288.9,360.84 291.4,377.39 " fill="none" id="SendingPong-to-terminal" style="stroke:#181818;stroke-width:1.0;"/><polygon fill="#181818" points="292.2,382.72,294.818,373.2255,291.4569,377.7755,286.9068,374.4144,292.2,382.72" style="stroke:#181818;stroke-width:1.0;"/><text fill="#000000" font-family="sans-serif" font-size="13" lengthAdjust="spacing" textLength="32" x="288" y="349.0669">Pong</text></g><!--MD5=[dd85dc063561b54f5230c9b8c6f8ed31]
link *start to start--><g id="link_*start_start"><path d="M90,42.02 C90,63.93 90,119.83 90,142.86 " fill="none" id="*start-to-start" style="stroke:#181818;stroke-width:1.0;"/><polygon fill="#181818" points="90,147.96,94,138.96,90,142.96,86,138.96,90,147.96" style="stroke:#181818;stroke-width:1.0;"/></g><!--MD5=[8923de9e81a79b46e2426870fdd5ec11]
link terminal to *end--><g id="link_terminal_*end"><path d="M294.96,394.83 C301.25,410.33 321.07,459.2 330.68,482.88 " fill="none" id="terminal-to-*end" style="stroke:#181818;stroke-width:1.0;"/><polygon fill="#181818" points="332.56,487.53,332.8793,477.6863,330.6785,482.8975,325.4673,480.6967,332.56,487.53" style="stroke:#181818;stroke-width:1.0;"/><text fill="#000000" font-family="sans-serif" font-size="13" lengthAdjust="spacing" textLength="32" x="314" y="438.0669">Pong</text></g><!--MD5=[9fc4cd08d2652f88e665f6a8dbfacba8]
link consumer to incoming--><g id="link_consumer_incoming"><path d="M277,57.28 C277,83.35 277,123.56 277,142.48 " fill="none" id="consumer-to-incoming" style="stroke:#181818;stroke-width:1.0;stroke-dasharray:1.0,3.0;"/><polygon fill="#181818" points="277,147.63,281,138.63,277,142.63,273,138.63,277,147.63" style="stroke:#181818;stroke-width:1.0;"/><text fill="#000000" font-family="sans-serif" font-size="13" lengthAdjust="spacing" textLength="27" x="278" y="100.0669">Ping</text></g><!--MD5=[50ac86da0313fef5d1955c88b48ebd5e]
link outgoing to producer--><g id="link_outgoing_producer"><path d="M121.84,395.11 C118.95,407.91 111.21,442.07 105.54,467.12 " fill="none" id="outgoing-to-producer" style="stroke:#181818;stroke-width:1.0;stroke-dasharray:1.0,3.0;"/><polygon fill="#181818" points="104.44,471.99,110.3191,464.0884,105.5382,467.1121,102.5145,462.3312,104.44,471.99" style="stroke:#181818;stroke-width:1.0;"/><text fill="#000000" font-family="sans-serif" font-size="13" lengthAdjust="spacing" textLength="32" x="115" y="438.0669">Pong</text></g><!--MD5=[3942b0988bdfca977d03df93bf2a0591]
@startuml
state StateMachineRunner {
        state start <<entryPoint>>
        state incoming <<entryPoint>>
        start - -> ListeningForPing
        incoming -[dotted]-> ListeningForPing: Ping
        incoming -[dotted]-> SendingPong: PongSent
        ListeningForPing -> SendingPong: Ping
        SendingPong -[dotted]-> outgoing <<exitPoint>>: Pong
        SendingPong - -> terminal <<exitPoint>>: Pong
}
[*] - -> start
terminal - -> [*]: Pong
consumer -[dotted]-> incoming: Ping
outgoing -[dotted]-> producer: Pong
note right of producer
        emit //PongSent//
        to **incoming**
end note
note right of incoming
        receive //PongSent//
        from **producer**
end note
@enduml

PlantUML version 1.2022.2(Sat Mar 05 17:30:19 CET 2022)
(GPL source distribution)
Java Runtime: OpenJDK Runtime Environment
JVM: OpenJDK 64-Bit Server VM
Default Encoding: UTF-8
Language: en
Country: US
--></g></svg>