<?xml version="1.0" encoding="UTF-8" standalone="no"?><svg xmlns="http://www.w3.org/2000/svg" xmlns:xlink="http://www.w3.org/1999/xlink" contentStyleType="text/css" height="63px" preserveAspectRatio="none" style="width:504px;height:63px;background:#FFFFFF;" version="1.1" viewBox="0 0 504 63" width="504px" zoomAndPan="magnify"><defs/><g><ellipse cx="16" cy="32" fill="#222222" rx="10" ry="10" style="stroke:none;stroke-width:1.0;"/><g id="ListeningForPing"><rect fill="#F1F1F1" height="50" rx="12.5" ry="12.5" style="stroke:#181818;stroke-width:0.5;" width="134" x="61" y="7"/><line style="stroke:#181818;stroke-width:0.5;" x1="61" x2="195" y1="33.2969" y2="33.2969"/><text fill="#000000" font-family="sans-serif" font-size="14" lengthAdjust="spacing" textLength="114" x="71" y="24.9951">ListeningForPing</text></g><g id="SendingPong"><rect fill="#F1F1F1" height="50" rx="12.5" ry="12.5" style="stroke:#181818;stroke-width:0.5;" width="113" x="279.5" y="7"/><line style="stroke:#181818;stroke-width:0.5;" x1="279.5" x2="392.5" y1="33.2969" y2="33.2969"/><text fill="#000000" font-family="sans-serif" font-size="14" lengthAdjust="spacing" textLength="93" x="289.5" y="24.9951">SendingPong</text></g><ellipse cx="488" cy="32" fill="none" rx="10" ry="10" style="stroke:#222222;stroke-width:1.0;"/><ellipse cx="488.5" cy="32.5" fill="#222222" rx="6" ry="6" style="stroke:none;stroke-width:1.0;"/><!--MD5=[791932fc708bdc0d985211ad34e8b2e8]
link *start to ListeningForPing--><g id="link_*start_ListeningForPing"><path d="M26.06,32 C35.9,32 45.73,32 55.56,32 " fill="none" id="*start-to-ListeningForPing" style="stroke:#181818;stroke-width:1.0;"/><polygon fill="#181818" points="60.71,32,51.71,28,55.71,32,51.71,36,60.71,32" style="stroke:#181818;stroke-width:1.0;"/></g><!--MD5=[2c0168fea2936e30711a57728b1c0836]
link ListeningForPing to SendingPong--><g id="link_ListeningForPing_SendingPong"><path d="M195.24,32 C220.62,32 249.35,32 274.2,32 " fill="none" id="ListeningForPing-to-SendingPong" style="stroke:#181818;stroke-width:1.0;"/><polygon fill="#181818" points="279.44,32,270.44,28,274.44,32,270.44,36,279.44,32" style="stroke:#181818;stroke-width:1.0;"/><text fill="#000000" font-family="sans-serif" font-size="13" lengthAdjust="spacing" textLength="48" x="213.25" y="25.0669">Ping(id)</text></g><!--MD5=[3a1daa00836533f93440e807203ebee7]
link SendingPong to ListeningForPing--><g id="link_SendingPong_ListeningForPing"><path d="M279.27,48.58 C272.74,49.98 266.13,51.18 259.75,52 C240.56,54.47 219.85,53.2 200.65,50.36 " fill="none" id="SendingPong-to-ListeningForPing" style="stroke:#181818;stroke-width:1.0;"/><polygon fill="#181818" points="195.28,49.52,203.5555,54.86,200.2202,50.291,204.7892,46.9557,195.28,49.52" style="stroke:#181818;stroke-width:1.0;"/><text fill="#000000" font-family="sans-serif" font-size="13" lengthAdjust="spacing" textLength="43" x="215.75" y="48.0669">id != 0</text></g><!--MD5=[94c963c176c1d31a0878016f55acd160]
link SendingPong to *end--><g id="link_SendingPong_*end"><path d="M392.6,32 C421.21,32 453.75,32 472.47,32 " fill="none" id="SendingPong-to-*end" style="stroke:#181818;stroke-width:1.0;"/><polygon fill="#181818" points="477.82,32,468.82,28,472.82,32,468.82,36,477.82,32" style="stroke:#181818;stroke-width:1.0;"/><text fill="#000000" font-family="sans-serif" font-size="13" lengthAdjust="spacing" textLength="49" x="410.75" y="25.0669">id == 0</text></g><!--MD5=[a01091fe612af061df31ff98b01396fe]
@startuml
[*] -> ListeningForPing
ListeningForPing -> SendingPong: Ping(id)
SendingPong -> ListeningForPing: id != 0
SendingPong -> [*]: id == 0
@enduml

PlantUML version 1.2022.2(Sat Mar 05 17:30:19 CET 2022)
(GPL source distribution)
Java Runtime: OpenJDK Runtime Environment
JVM: OpenJDK 64-Bit Server VM
Default Encoding: UTF-8
Language: en
Country: US
--></g></svg>