<?xml version="1.0" encoding="UTF-8" standalone="no"?><svg xmlns="http://www.w3.org/2000/svg" xmlns:xlink="http://www.w3.org/1999/xlink" contentStyleType="text/css" height="63px" preserveAspectRatio="none" style="width:433px;height:63px;background:#FFFFFF;" version="1.1" viewBox="0 0 433 63" width="433px" zoomAndPan="magnify"><defs/><g><ellipse cx="16" cy="32" fill="#222222" rx="10" ry="10" style="stroke:none;stroke-width:1.0;"/><g id="ListeningForPing"><rect fill="#F1F1F1" height="50" rx="12.5" ry="12.5" style="stroke:#181818;stroke-width:0.5;" width="134" x="61" y="7"/><line style="stroke:#181818;stroke-width:0.5;" x1="61" x2="195" y1="33.2969" y2="33.2969"/><text fill="#000000" font-family="sans-serif" font-size="14" lengthAdjust="spacing" textLength="114" x="71" y="24.9951">ListeningForPing</text></g><g id="SendingPong"><rect fill="#F1F1F1" height="50" rx="12.5" ry="12.5" style="stroke:#181818;stroke-width:0.5;" width="113" x="258.5" y="7"/><line style="stroke:#181818;stroke-width:0.5;" x1="258.5" x2="371.5" y1="33.2969" y2="33.2969"/><text fill="#000000" font-family="sans-serif" font-size="14" lengthAdjust="spacing" textLength="93" x="268.5" y="24.9951">SendingPong</text></g><ellipse cx="417" cy="32" fill="none" rx="10" ry="10" style="stroke:#222222;stroke-width:1.0;"/><ellipse cx="417.5" cy="32.5" fill="#222222" rx="6" ry="6" style="stroke:none;stroke-width:1.0;"/><!--MD5=[791932fc708bdc0d985211ad34e8b2e8]
link *start to ListeningForPing--><g id="link_*start_ListeningForPing"><path d="M26.06,32 C35.9,32 45.73,32 55.56,32 " fill="none" id="*start-to-ListeningForPing" style="stroke:#181818;stroke-width:1.0;"/><polygon fill="#181818" points="60.71,32,51.71,28,55.71,32,51.71,36,60.71,32" style="stroke:#181818;stroke-width:1.0;"/></g><!--MD5=[2c0168fea2936e30711a57728b1c0836]
link ListeningForPing to SendingPong--><g id="link_ListeningForPing_SendingPong"><path d="M195.25,32 C214.1,32 234.51,32 253.04,32 " fill="none" id="ListeningForPing-to-SendingPong" style="stroke:#181818;stroke-width:1.0;"/><polygon fill="#181818" points="258.21,32,249.21,28,253.21,32,249.21,36,258.21,32" style="stroke:#181818;stroke-width:1.0;"/><text fill="#000000" font-family="sans-serif" font-size="13" lengthAdjust="spacing" textLength="27" x="213.25" y="25.0669">Ping</text></g><!--MD5=[94c963c176c1d31a0878016f55acd160]
link SendingPong to *end--><g id="link_SendingPong_*end"><path d="M371.58,32 C381.55,32 391.52,32 401.49,32 " fill="none" id="SendingPong-to-*end" style="stroke:#181818;stroke-width:1.0;"/><polygon fill="#181818" points="406.71,32,397.71,28,401.71,32,397.71,36,406.71,32" style="stroke:#181818;stroke-width:1.0;"/></g><!--MD5=[b800326d9d94142f4ae2becbd8f863ab]
@startuml
[*] -> ListeningForPing
ListeningForPing -> SendingPong: Ping
SendingPong -> [*]
@enduml

PlantUML version 1.2022.2(Sat Mar 05 17:30:19 CET 2022)
(GPL source distribution)
Java Runtime: OpenJDK Runtime Environment
JVM: OpenJDK 64-Bit Server VM
Default Encoding: UTF-8
Language: en
Country: US
--></g></svg>